<?xml version="1.0" encoding="UTF-8"?>
<svg xmlns="http://www.w3.org/2000/svg" viewBox="0 0 500 500" width="500" height="500">
  <defs>
    <linearGradient id="bg" x1="0%" y1="0%" x2="100%" y2="100%">
      <stop offset="0%" stop-color="#EC4899" stop-opacity="0.95"/>
      <stop offset="100%" stop-color="#F59E0B" stop-opacity="0.95"/>
    </linearGradient>
    <radialGradient id="glow" cx="50%" cy="50%" r="65%">
      <stop offset="0%" stop-color="rgba(255,255,255,0.3)"/>
      <stop offset="100%" stop-color="rgba(255,255,255,0)"/>
    </radialGradient>
    <pattern id="grain" x="0" y="0" width="4" height="4" patternUnits="userSpaceOnUse">
      <rect width="4" height="4" fill="rgba(255,255,255,0)"/>
      <circle cx="1" cy="1" r="0.5" fill="rgba(255,255,255,0.06)"/>
      <circle cx="3" cy="3" r="0.5" fill="rgba(0,0,0,0.04)"/>
    </pattern>
  </defs>
  <rect width="500" height="500" fill="url(#bg)"/>
  <rect width="500" height="500" fill="url(#glow)"/>
  <path d="M 130 130 L 200 100 L 270 100 L 340 130 L 380 180 L 350 200 L 340 180 L 340 320 L 130 320 L 130 180 L 120 200 L 90 180 Z" fill="rgba(255,255,255,0.92)"/><path d="M 200 100 Q 235 130 270 100" fill="none" stroke="rgba(0,0,0,0.2)" stroke-width="3"/><text x="235" y="240" font-family="Inter,system-ui,sans-serif" font-weight="800" font-size="48" text-anchor="middle" fill="rgba(0,0,0,0.4)">10</text>
  <rect width="500" height="500" fill="url(#grain)"/>
  <text x="250" y="430" font-family="Inter,system-ui,sans-serif" font-weight="800" font-size="44" letter-spacing="3" text-anchor="middle" fill="rgba(255,255,255,0.95)">JERSEY</text>
</svg>